<?xml version="1.0" standalone="no"?>
<!DOCTYPE svg PUBLIC "-//W3C//DTD SVG 20010904//EN"
 "http://www.w3.org/TR/2001/REC-SVG-20010904/DTD/svg10.dtd">
<svg version="1.0" xmlns="http://www.w3.org/2000/svg"
 width="260.000000pt" height="260.000000pt" viewBox="0 0 260.000000 260.000000"
 preserveAspectRatio="xMidYMid meet">
<metadata>
Created by potrace 1.14, written by Peter Selinger 2001-2017
</metadata>
<g transform="translate(0.000000,260.000000) scale(0.100000,-0.100000)"
fill="#000000" stroke="none">
<path d="M561 2164 c0 -132 -3 -189 -11 -194 -6 -4 -11 -11 -10 -16 0 -5 -2
-18 -6 -29 -3 -11 -7 -23 -8 -27 0 -3 -4 -10 -8 -14 -5 -4 -8 -18 -8 -31 0
-13 -4 -23 -10 -23 -5 0 -10 -8 -10 -18 0 -10 -3 -22 -7 -26 -5 -4 -8 -11 -9
-14 -6 -39 -18 -72 -25 -72 -5 0 -8 -3 -7 -7 0 -5 -1 -15 -5 -23 -3 -8 -13
-37 -23 -65 -10 -27 -22 -56 -27 -62 -5 -7 -6 -13 -1 -13 5 0 2 -5 -6 -10 -11
-7 -12 -10 -2 -10 10 0 10 -4 -2 -15 -8 -9 -18 -31 -22 -50 -3 -19 -11 -35
-17 -35 -6 0 -8 -3 -5 -6 3 -3 -18 -69 -48 -146 -30 -77 -54 -147 -54 -154 0
-8 -4 -14 -9 -14 -5 0 -12 -15 -16 -32 -4 -18 -9 -35 -10 -38 -2 -6 -12 -32
-22 -57 -3 -10 -5 -21 -5 -25 1 -5 -3 -8 -10 -8 -6 0 -9 -3 -5 -6 3 -4 0 -19
-9 -35 -8 -16 -11 -29 -7 -29 5 0 4 -4 -2 -8 -5 -4 -23 -32 -38 -63 -15 -31
-43 -71 -62 -90 -29 -29 -34 -41 -35 -79 l0 -45 232 0 233 0 1 32 c1 18 -2 34
-5 34 -3 1 -19 2 -34 3 -16 1 -32 8 -37 16 -6 8 -10 11 -10 6 0 -12 -39 24
-53 49 -11 22 -18 155 -7 155 4 0 7 6 8 13 3 43 11 72 19 70 5 -1 7 11 5 28
-3 17 0 29 7 29 6 0 11 9 11 20 0 11 4 28 9 38 15 26 24 56 22 66 -1 4 12 6
29 4 16 -3 30 0 30 5 0 5 6 5 13 -1 7 -6 18 -7 26 -2 8 4 26 4 40 -1 l26 -9
-2 -320 -2 -320 353 0 c431 0 606 15 744 64 23 8 42 12 42 8 0 -4 8 -8 18 -9
9 -1 31 -2 49 -4 20 -1 30 -6 26 -13 -4 -6 1 -5 11 3 11 9 20 11 24 5 4 -6 16
-11 27 -11 62 -2 261 -4 268 -3 21 6 33 5 45 -4 9 -7 12 -5 10 4 -2 9 9 15 31
17 19 2 41 9 49 15 13 11 14 10 8 0 -6 -9 3 -8 25 4 19 10 36 19 39 19 3 0 15
6 28 13 12 7 22 9 22 5 0 -4 5 0 11 10 5 9 14 17 20 17 11 0 85 75 93 95 3 8
10 15 16 15 6 0 8 5 5 10 -3 6 -1 10 5 10 6 0 9 4 5 9 -3 5 2 17 11 25 9 9 11
16 4 16 -7 0 -5 6 4 15 8 9 13 21 10 29 -3 7 1 18 8 24 9 7 13 32 12 71 -1 39
2 61 10 61 6 0 4 5 -4 10 -13 9 -13 10 0 10 9 0 11 3 5 8 -5 4 -11 25 -13 47
-3 46 -41 156 -56 167 -6 4 -8 8 -3 8 4 0 -1 8 -10 19 -10 10 -32 35 -50 55
-18 20 -37 36 -43 36 -5 0 -10 6 -10 14 0 12 -27 30 -38 26 -2 -1 -12 8 -21
19 -10 12 -23 21 -28 21 -6 0 -16 7 -23 15 -7 8 -16 12 -21 9 -5 -3 -9 -1 -9
5 0 5 -9 12 -19 16 -22 7 -27 19 -35 85 -3 25 -9 56 -12 70 -3 14 -7 36 -10
49 -24 118 -126 294 -231 397 -63 63 -70 74 -53 79 11 4 20 11 20 16 0 5 3 8
8 8 4 -1 9 0 12 1 7 2 33 9 52 13 10 2 21 6 24 10 4 4 12 7 18 7 6 0 4 -5 -4
-11 -12 -9 -11 -9 5 -4 25 10 105 13 105 4 0 -3 7 -6 15 -6 8 0 15 5 15 11 0
8 3 8 8 1 4 -6 26 -17 50 -25 23 -7 42 -17 42 -22 0 -4 5 -8 10 -8 6 0 20 -9
32 -20 12 -11 18 -20 13 -20 -4 0 4 -11 19 -25 15 -14 24 -25 20 -25 -3 0 1
-11 10 -25 9 -14 14 -25 10 -25 -4 0 -2 -6 3 -12 6 -7 16 -30 22 -50 12 -36
12 -37 69 -37 31 0 61 4 67 9 11 10 13 159 1 178 -4 7 -4 12 1 12 4 0 7 33 6
72 -1 91 -2 93 -9 85 -3 -3 -18 -1 -33 5 -14 6 -35 11 -46 12 -11 1 -26 5 -32
9 -8 5 -13 3 -13 -5 0 -10 -2 -10 -8 -1 -4 7 -28 14 -52 17 -25 2 -54 8 -64
12 -15 6 -17 4 -11 -6 6 -9 4 -11 -6 -4 -19 12 -281 16 -274 4 3 -6 -1 -7 -9
-4 -8 3 -21 2 -27 -2 -7 -4 -24 -8 -38 -10 -28 -2 -46 -7 -73 -18 -9 -4 -24
-9 -33 -10 -9 -1 -20 -7 -23 -12 -4 -5 -14 -10 -22 -12 -8 -2 -16 -7 -18 -12
-2 -5 -28 3 -59 16 -148 66 -322 84 -800 84 l-353 0 1 -186z m834 -188 c73
-22 160 -77 161 -101 1 -11 3 -22 4 -25 1 -3 4 -18 5 -35 4 -38 10 -62 25
-100 6 -16 11 -32 10 -34 -1 -2 2 -7 7 -10 5 -3 19 -22 31 -43 12 -20 41 -53
64 -73 l41 -37 0 -87 c1 -141 -19 -245 -63 -332 -23 -45 -97 -139 -110 -139
-5 0 -21 -12 -35 -26 -33 -33 -119 -72 -176 -80 l-44 -6 -13 48 c-8 27 -16 55
-18 62 -2 7 -4 16 -5 20 0 4 -5 13 -11 20 -6 6 -8 12 -5 12 4 0 0 18 -8 39 -7
22 -11 42 -8 45 4 3 1 6 -6 6 -8 0 -11 7 -7 15 3 8 1 15 -5 15 -6 0 -8 4 -5 8
3 5 -1 19 -8 33 -7 13 -11 30 -8 37 2 6 0 12 -5 12 -5 0 -10 8 -11 18 -3 37
-9 58 -19 77 -6 11 -12 25 -12 30 -5 30 -15 62 -25 74 -9 12 -8 13 3 6 11 -6
12 -5 5 6 -5 8 -9 16 -10 19 0 3 -6 18 -12 33 -7 16 -10 33 -6 38 3 5 0 9 -6
9 -6 0 -8 5 -5 10 3 6 2 10 -2 10 -5 0 -9 8 -10 18 -1 15 -9 49 -13 62 -1 3
-2 8 -1 13 0 4 -4 7 -9 7 -5 0 -9 3 -8 8 1 4 -2 25 -7 47 -5 22 -9 43 -9 47
-1 3 -4 10 -8 14 -5 4 -8 59 -8 122 l0 115 158 -6 c101 -3 175 -11 207 -21z
m-833 -566 c0 -83 -1 -153 -3 -155 -6 -5 -31 -7 -76 -6 l-42 1 21 58 c12 31
25 59 28 62 3 3 5 15 4 27 -1 12 3 20 7 17 5 -3 9 2 9 11 0 20 43 145 48 140
2 -2 4 -71 4 -155z m1689 -209 c15 -16 31 -26 35 -23 4 4 4 2 1 -4 -3 -6 2
-20 13 -31 10 -12 16 -24 13 -27 -4 -3 -1 -6 5 -6 7 0 12 -11 12 -24 0 -14 5
-28 10 -31 6 -4 8 -10 5 -15 -3 -5 -1 -19 5 -30 8 -15 8 -20 -2 -20 -9 0 -9
-3 2 -10 12 -8 12 -10 1 -10 -11 0 -11 -3 0 -17 12 -15 12 -16 -1 -8 -11 6
-12 5 -4 -4 11 -12 -1 -109 -15 -121 -3 -3 -8 -14 -9 -25 -2 -11 -7 -22 -11
-25 -4 -3 -16 -18 -28 -33 -12 -15 -25 -28 -30 -29 -4 0 -14 -9 -21 -19 -7
-10 -21 -16 -32 -14 -11 2 -18 0 -15 -6 6 -8 -7 -12 -47 -12 -10 0 -18 -3 -18
-6 0 -11 -133 -10 -154 1 -14 7 -17 7 -11 -2 6 -9 3 -9 -13 -1 -12 6 -31 12
-44 13 -20 2 -14 11 52 77 118 118 199 254 243 412 12 43 24 79 26 79 2 0 16
-13 32 -29z m-1205 -254 c3 -16 14 -76 17 -90 1 -6 -6 -13 -15 -15 -16 -3 -18
5 -18 64 0 37 3 64 7 60 4 -3 8 -12 9 -19z"/>
</g>
</svg>
